<svg t="1764645596752" class="icon" viewBox="0 0 1024 1024" version="1.1" xmlns="http://www.w3.org/2000/svg" p-id="24635" width="200" height="200"><path d="M808.96 290.133333c-37.546667-143.36-163.84-238.933333-314.026667-238.933333C317.44 51.2 170.666667 197.973333 170.666667 375.466667v17.066666c-95.573333 6.826667-170.666667 88.746667-170.666667 187.733334 0 102.4 85.333333 187.733333 187.733333 187.733333h34.133334c10.24 0 17.066667-6.826667 17.066666-17.066667 0-139.946667 116.053333-256 256-256S750.933333 610.986667 750.933333 750.933333c0 10.24 6.826667 17.066667 17.066667 17.066667h17.066667c133.12 0 238.933333-105.813333 238.933333-238.933333 0-122.88-92.16-225.28-215.04-238.933334z" fill="" p-id="24636"></path><path d="M494.933333 529.066667C372.053333 529.066667 273.066667 628.053333 273.066667 750.933333s98.986667 221.866667 221.866666 221.866667S716.8 873.813333 716.8 750.933333s-98.986667-221.866667-221.866667-221.866666z m81.92 276.48c6.826667 6.826667 6.826667 17.066667 0 23.893333-3.413333 3.413333-6.826667 3.413333-13.653333 3.413333s-10.24 0-13.653333-3.413333l-54.613334-54.613333-54.613333 54.613333c-3.413333 3.413333-6.826667 3.413333-13.653333 3.413333s-10.24 0-13.653334-3.413333c-6.826667-6.826667-6.826667-17.066667 0-23.893333l54.613334-54.613334-54.613334-54.613333c-6.826667-6.826667-6.826667-17.066667 0-23.893333s17.066667-6.826667 23.893334 0l54.613333 54.613333 54.613333-54.613333c6.826667-6.826667 17.066667-6.826667 23.893334 0s6.826667 17.066667 0 23.893333L518.826667 750.933333l58.026666 54.613334z" fill="" p-id="24637"></path></svg>