<svg t="1764646812117" class="icon" viewBox="0 0 1024 1024" version="1.1" xmlns="http://www.w3.org/2000/svg" p-id="50640" width="200" height="200"><path d="M390.4 614.4l19.2-6.4c0 0-6.4-19.2-19.2-19.2L390.4 576c0 0-12.8-12.8-12.8-19.2 0 0 19.2 0 25.6 0l0 0c0 0-38.4 0-44.8-12.8 0 0 12.8 19.2 0 19.2 0 0-38.4 12.8 6.4 32C377.6 601.6 390.4 608 390.4 614.4zM601.6 608c0 0 12.8 6.4 12.8 12.8 0 0 0 19.2 25.6 19.2 0 0-12.8 25.6-57.6 6.4 0 0-12.8-12.8-12.8-19.2 0 6.4-25.6 70.4-70.4 32 0 0 0 19.2-19.2 38.4 0 0-19.2 19.2 6.4 32 0 0-6.4 19.2 32 32 0 0 12.8 0 19.2-6.4 0 0 44.8 38.4 64 38.4 0 0-6.4-32 0-57.6-6.4-6.4-12.8-25.6-44.8-12.8l0-6.4c0 0-19.2 25.6-38.4 0 0 0-6.4-19.2 12.8-25.6 0 0-6.4-6.4-6.4-19.2 0 0 6.4 12.8 25.6 19.2 0 0 38.4 12.8 57.6 6.4 0 0 12.8-32-6.4-44.8 0 0 12.8 6.4 12.8 38.4 0 0 0 19.2 6.4 32 0 0 0 64-12.8 96l-19.2 32c0 0 25.6 38.4 51.2 32l-19.2-51.2 12.8 51.2c0 0 6.4-38.4 6.4-57.6 0 0-6.4-38.4-6.4-51.2 0 0 0-32 6.4-51.2 0 0-6.4-12.8 6.4-12.8 0 0 19.2-70.4 25.6-96l6.4-19.2C684.8 620.8 672 627.2 601.6 608zM384 499.2c0 0 19.2-19.2 51.2-19.2l6.4 0c0 0-25.6 25.6-25.6 32 0 0 76.8 0 108.8-6.4 0 0 51.2 0 102.4-76.8 0 0-25.6 64-96 83.2 0 0 25.6 0 64 32 0 0 64 32 89.6 19.2 0 0 25.6-12.8-12.8-32 0 0-12.8-6.4-19.2-6.4 0 0 25.6-12.8 57.6 6.4 0 0 12.8-96-19.2-166.4 0 0-64-89.6-268.8-70.4 0 0-70.4 6.4-76.8 108.8 0 0-25.6 70.4-121.6 64 0 0 19.2 19.2 70.4 12.8 0 0 32-19.2 51.2-64 0 0-12.8 57.6 38.4 96L384 499.2zM716.8 563.2c-19.2-44.8-57.6-32-57.6-32 64 19.2 25.6 51.2 25.6 51.2-19.2 6.4-102.4-25.6-102.4-25.6C544 512 480 518.4 480 518.4L441.6 524.8c-51.2 0-38.4-6.4-38.4-6.4 0-19.2 25.6-32 25.6-32C396.8 480 377.6 512 377.6 512 352 550.4 416 550.4 416 550.4c19.2 0 44.8 6.4 44.8 6.4-12.8 6.4-64 0-64 0 19.2 44.8 51.2 25.6 51.2 25.6 0 12.8-25.6 25.6-25.6 25.6C377.6 614.4 390.4 640 390.4 640c-19.2 12.8 0 19.2 0 19.2 6.4-6.4 6.4 0 6.4 0 6.4 25.6 44.8 6.4 44.8 6.4 12.8 12.8 25.6 0 25.6 0 6.4-19.2 12.8-19.2 12.8-19.2 57.6 38.4 83.2-12.8 83.2-12.8 0-6.4 0-32 0-32 0 12.8 0 25.6 0 25.6 38.4 38.4 64 12.8 64 12.8-12.8 0-19.2-12.8-19.2-12.8 0-12.8-25.6-25.6-25.6-25.6C576 595.2 569.6 588.8 569.6 588.8c12.8 6.4 83.2 25.6 83.2 25.6C729.6 627.2 716.8 563.2 716.8 563.2zM396.8 627.2c0 0 12.8-6.4 12.8 6.4L396.8 640C396.8 640 396.8 633.6 396.8 627.2zM422.4 652.8c0 0-6.4-6.4-12.8 0l0 0c0 0 12.8-12.8 25.6 6.4l6.4 0C435.2 659.2 428.8 659.2 422.4 652.8zM435.2 640c0 0-6.4-12.8 6.4-6.4 0 0 6.4 0 6.4 12.8C448 640 441.6 646.4 435.2 640zM454.4 595.2c0 0-6.4-6.4-6.4-25.6 0 0 12.8 6.4 19.2 12.8C467.2 588.8 467.2 601.6 454.4 595.2zM512 608c0 0-12.8-6.4-6.4-19.2 0-6.4 44.8 0 44.8 0C531.2 614.4 512 608 512 608zM352 307.2c0 0-44.8-6.4-44.8-57.6 0 0-12.8-57.6 76.8-76.8 0 0 128-25.6 160-38.4 0 0 89.6-25.6 128-57.6 0 0 44.8-25.6 6.4-32 0 0-51.2 6.4-70.4-12.8 0 0 19.2 19.2 70.4 6.4 0 0 57.6-12.8 25.6 32 0 0-25.6 51.2-166.4 89.6 0 0-83.2 25.6-108.8 32 0 0-96 19.2-44.8 76.8 0 0 25.6 19.2 76.8 0 0 0 96-51.2 192-19.2 0 0 102.4 25.6 64 147.2 0 0-19.2-83.2-140.8-102.4C576 281.6 384 256 352 307.2zM352 518.4c0 0-6.4 0-12.8-6.4 0 0-19.2 6.4-25.6 32 0 0-57.6 6.4-57.6 57.6 0 0 0 32 44.8 64 0 0-19.2 6.4-19.2 19.2 0 0-44.8-6.4-44.8 25.6 0 0 0 19.2 19.2 19.2 0 0-6.4 32 44.8 32 0 0 6.4 25.6 51.2 0 0 0-51.2-19.2-25.6-76.8 0 0 6.4-25.6 57.6-25.6 0 0-12.8-19.2 6.4-32L390.4 614.4c0 0-38.4-19.2-25.6-38.4 0 0 0-12.8 12.8-19.2C358.4 550.4 352 531.2 352 518.4zM422.4 691.2c0 0-25.6 6.4-44.8-12.8 0 0-25.6-6.4-38.4 19.2 0 0-25.6-6.4-25.6 25.6 0 0-6.4 19.2 25.6 32 0 0 25.6 38.4 70.4 0C416 755.2 384 723.2 422.4 691.2zM467.2 691.2c0 0-51.2 6.4-51.2 51.2 0 0 6.4 32 57.6 32 0 0-12.8-6.4-12.8-19.2 0 0-12.8-6.4-12.8-19.2C454.4 729.6 441.6 704 467.2 691.2zM544 806.4c0 0-38.4-6.4-38.4-19.2 0 0-19.2-6.4-25.6-12.8 0 0-38.4 6.4-51.2 19.2 0 0-51.2-38.4-83.2 12.8 0 0-57.6-12.8-57.6 51.2 0 0 0 57.6 76.8 38.4 0 0 6.4 57.6 96 25.6 0 0 6.4 19.2 44.8 12.8 0 0 19.2 0 38.4-32 0 0 38.4-19.2 12.8-38.4 0 0-6.4-57.6-70.4-38.4 0 0-57.6 19.2-19.2 64 0 0 12.8 19.2 51.2 0 0 0 12.8-19.2-6.4-25.6 0 0-25.6 0-12.8 12.8 0 0 12.8 12.8 0 12.8 0 0-19.2 0-6.4-19.2 0 0 6.4-12.8 38.4-6.4 0 0 19.2 6.4 12.8 38.4 0 0-12.8 32-51.2 19.2 0 0-51.2-12.8-38.4-64C448 844.8 454.4 793.6 544 806.4zM550.4 819.2c0 0 19.2 19.2 19.2 32 0 0 19.2-25.6 19.2-32 0 0-19.2 0-19.2-6.4C576 819.2 563.2 806.4 550.4 819.2zM672 857.6c0 0 6.4 57.6-12.8 64 0 0-12.8 6.4-19.2 0 0 0 0 19.2-25.6 19.2 0 0-6.4-6.4 0-25.6 0 0-19.2-6.4-19.2-19.2 0 0-38.4 6.4-38.4 51.2 0 0 0 57.6 64 51.2 0 0 25.6 0 44.8-38.4 0 0 32 0 51.2-32C704 915.2 723.2 876.8 672 857.6zM678.4 716.8c0 0 25.6 12.8 12.8 57.6 0 0 12.8 12.8 25.6 0 0 0 12.8 19.2 44.8 0 0 0 12.8-6.4 6.4-32 0 0 19.2 6.4 25.6-12.8 0 0 12.8-32-25.6-38.4 0 0-6.4 0-12.8 6.4 0 0-6.4-25.6-51.2-19.2 0 0-19.2 6.4-19.2 19.2C684.8 691.2 691.2 710.4 678.4 716.8zM665.6 748.8c0 12.8-6.4 19.2-6.4 19.2 0 6.4 0 19.2 0 19.2 38.4-19.2 12.8-57.6 12.8-57.6C672 748.8 665.6 748.8 665.6 748.8z" fill="#020302" p-id="50641"></path></svg>